<?xml version="1.0" standalone="no"?>
<!DOCTYPE svg PUBLIC "-//W3C//DTD SVG 20010904//EN"
 "http://www.w3.org/TR/2001/REC-SVG-20010904/DTD/svg10.dtd">
<svg version="1.0" xmlns="http://www.w3.org/2000/svg"
 width="828.000000pt" height="828.000000pt" viewBox="0 0 828.000000 828.000000"
 preserveAspectRatio="xMidYMid meet">
<metadata>
Created by potrace 1.11, written by Peter Selinger 2001-2013
</metadata>
<g transform="translate(0.000000,828.000000) scale(0.100000,-0.100000)"
fill="#000000" stroke="none">
<path d="M1070 8153 c-125 -310 -172 -467 -197 -657 -16 -122 -24 -506 -11
-506 4 0 4 -78 1 -172 -6 -189 5 -324 37 -460 24 -102 86 -293 107 -328 l14
-25 -4 25 c-3 14 -19 74 -37 134 -48 166 -69 287 -76 446 -4 80 -4 143 -2 140
3 -3 13 -43 22 -89 10 -46 40 -156 67 -245 27 -88 55 -197 60 -241 6 -44 17
-116 25 -160 l14 -80 -6 134 -5 135 22 -20 c11 -10 35 -45 51 -78 16 -32 69
-117 116 -188 148 -221 165 -257 217 -478 59 -248 106 -414 145 -518 34 -88
59 -114 34 -34 -52 162 -108 381 -100 389 4 4 122 -170 144 -213 6 -12 25 -75
42 -140 77 -298 151 -474 219 -519 47 -33 61 -32 29 3 -33 35 -62 93 -109 220
-21 58 -48 119 -59 137 -21 34 -41 138 -23 120 6 -5 31 -40 56 -76 52 -74 82
-105 71 -73 -4 10 -17 33 -28 49 -18 26 -21 48 -24 160 -2 72 -2 146 0 165 3
34 3 34 16 12 7 -12 26 -64 42 -115 15 -50 49 -150 75 -222 58 -162 135 -394
135 -406 0 -5 -28 -9 -62 -10 l-63 -1 40 -18 c44 -20 97 -26 133 -15 27 9 29
25 3 25 -11 0 -23 6 -28 13 -7 11 -120 393 -146 492 -5 22 -23 82 -39 134 -16
51 -30 110 -32 130 -2 20 -10 51 -16 70 -14 37 -7 178 10 195 6 6 10 28 10 50
1 83 60 207 162 338 17 22 26 42 22 53 -6 14 -1 13 30 -5 21 -11 41 -18 46
-15 9 5 133 -25 200 -50 181 -66 410 -112 410 -82 0 8 31 26 70 41 68 27 139
75 225 150 57 50 27 45 -91 -15 -117 -59 -190 -79 -299 -79 -66 1 -84 4 -104
21 -21 17 -22 22 -10 30 7 5 31 9 51 9 50 0 57 17 11 25 -95 17 -94 16 -119
85 -13 36 -22 71 -19 78 9 24 35 11 65 -33 37 -53 90 -91 142 -100 53 -10 132
19 179 65 33 32 39 44 39 79 l0 41 -70 0 c-95 0 -89 18 8 22 87 4 145 -8 138
-29 -3 -8 2 -13 13 -13 9 0 27 -10 39 -23 21 -23 21 -23 2 -55 -23 -37 -26
-36 54 -17 75 19 106 34 106 52 0 26 34 8 115 -60 74 -63 104 -94 146 -152 18
-25 34 -43 37 -40 3 2 8 37 13 77 26 238 66 368 150 493 57 85 82 104 160 118
33 7 59 16 60 22 1 17 100 88 110 78 11 -11 79 -173 79 -188 0 -5 12 -34 25
-64 20 -42 28 -52 37 -43 7 7 19 12 28 12 9 0 31 20 49 45 28 40 80 81 172
139 65 40 34 5 -60 -70 -103 -81 -131 -121 -131 -185 0 -24 4 -27 63 -35 88
-12 307 -11 402 2 44 7 107 21 140 33 33 12 87 30 120 40 33 10 98 35 145 56
57 26 100 39 130 40 37 0 44 3 42 18 -2 10 3 17 14 17 13 0 14 3 5 14 -8 10
-8 15 -1 18 7 2 7 11 -2 29 -13 29 -162 110 -236 129 -144 37 -383 52 -465 29
-42 -11 -63 -4 -34 12 9 6 17 16 17 23 0 8 6 19 14 26 8 6 13 17 10 24 -3 7 7
18 21 26 17 9 22 16 13 21 -12 8 -7 23 21 69 5 8 16 31 25 51 20 47 35 59 143
113 60 29 106 46 129 46 65 0 264 -69 314 -109 25 -19 47 -38 50 -41 3 -3 34
-29 70 -59 153 -126 237 -216 255 -272 5 -13 14 -28 21 -34 13 -10 34 -125 53
-285 10 -82 31 -237 51 -370 5 -36 12 -108 15 -160 12 -186 27 -335 36 -344 5
-6 9 8 10 35 0 24 2 58 5 74 2 17 4 155 4 308 -1 170 3 276 9 273 10 -7 51
-135 51 -161 0 -10 9 -54 19 -99 42 -175 37 -257 -19 -379 -20 -43 -32 -87
-35 -129 l-4 -63 12 47 c16 61 79 188 92 184 13 -3 18 -87 10 -156 -6 -47 -13
-60 -48 -92 -22 -21 -47 -38 -56 -38 -11 0 -12 -3 -4 -8 7 -4 9 -13 4 -21 -18
-28 -31 2 -31 67 -1 87 -12 67 -39 -69 -34 -170 -34 -170 50 -91 141 134 164
207 154 492 -6 182 4 393 26 514 6 32 8 60 5 63 -8 8 -46 -131 -58 -216 -6
-44 -14 -81 -18 -81 -18 0 -27 89 -10 106 5 5 16 39 24 74 8 36 23 100 35 144
17 64 20 100 17 193 -3 103 -6 116 -25 129 -26 19 -34 14 -67 -42 -14 -24 -27
-44 -29 -44 -10 0 61 194 73 198 11 3 49 -53 90 -134 35 -69 193 -261 261
-318 66 -55 122 -92 151 -100 23 -6 23 -6 5 5 -37 22 -96 71 -91 76 2 2 27 -7
55 -21 28 -14 56 -26 63 -26 6 0 -11 12 -39 26 -107 55 -142 91 -224 230 -72
122 -79 139 -98 235 -11 57 -25 156 -31 219 -6 63 -13 130 -15 149 -3 22 11
79 41 168 25 74 52 180 60 235 8 56 19 108 23 116 5 8 11 -56 14 -144 5 -159
24 -313 54 -454 25 -118 27 -66 3 117 -18 132 -24 252 -31 558 -10 491 -30
805 -50 805 -5 0 -9 -26 -10 -57 0 -32 -3 -51 -5 -43 -12 36 -50 100 -60 100
-16 0 -24 -56 -25 -180 -2 -139 -16 -85 -18 68 l-1 112 -2494 0 -2494 0 -52
-127z m5145 -205 c4 -141 4 -142 -5 -38 -16 190 -17 212 -8 196 4 -8 10 -79
13 -158z m-44 -260 c-6 -54 -12 -129 -12 -166 -1 -37 -5 -80 -10 -97 -10 -37
-3 190 10 330 6 55 11 102 12 105 9 20 8 -92 0 -172z m-5264 -315 c-3 -10 -5
-2 -5 17 0 19 2 27 5 18 2 -10 2 -26 0 -35z m-6 -99 l-9 -39 -1 36 c-1 20 2
39 6 42 12 13 13 0 4 -39z m-14 -91 c-3 -10 -5 -2 -5 17 0 19 2 27 5 18 2 -10
2 -26 0 -35z m-7 -105 l-5 -83 -3 69 c-3 61 1 96 10 96 2 0 1 -37 -2 -82z m73
-178 c3 -113 1 -196 -3 -185 -5 11 -9 108 -9 215 1 107 2 191 4 185 2 -5 5
-102 8 -215z m4132 -492 c14 -6 25 -15 25 -19 0 -4 -28 -24 -62 -45 -35 -21
-86 -55 -115 -76 -68 -50 -140 -76 -244 -89 -101 -12 -187 -7 -281 18 -54 13
-68 21 -68 36 0 26 74 108 112 124 42 18 48 17 48 -13 0 -38 28 -92 62 -115
40 -29 132 -29 190 0 42 21 113 104 113 133 0 8 -22 17 -60 24 -76 15 -75 14
-45 24 40 13 296 12 325 -2z m861 -245 c-3 -21 -6 -78 -6 -127 0 -109 -13
-105 -37 11 -17 79 -17 80 6 116 30 48 45 48 37 0z m-4390 -653 c24 0 34 -17
34 -60 0 -30 60 -177 104 -256 38 -67 18 -52 -50 39 -74 98 -78 106 -110 203
-27 85 -30 104 -12 86 7 -7 22 -12 34 -12z m232 -258 c-6 -32 -25 -20 -51 33
-15 31 -27 59 -27 63 1 4 19 -13 41 -37 22 -25 38 -51 37 -59z m-18 -186 c15
-41 -7 -31 -25 10 -8 20 -15 41 -15 47 0 15 27 -24 40 -57z"/>
<path d="M4901 6801 c99 -32 176 -81 291 -187 62 -57 114 -102 116 -99 2 2
-37 51 -87 108 -126 145 -210 197 -321 196 l-55 -1 56 -17z"/>
<path d="M5110 6144 c-63 -19 -153 -39 -200 -44 -104 -12 -371 -12 -501 -1
-53 5 -108 6 -124 4 -23 -5 -14 -10 61 -37 83 -28 99 -30 234 -31 80 0 181 6
225 13 188 32 292 53 320 67 17 8 57 25 90 39 86 36 34 31 -105 -10z"/>
<path d="M2765 5860 l-30 -8 37 -1 c20 0 40 4 43 9 7 11 -6 11 -50 0z"/>
<path d="M4465 5070 c3 -25 8 -75 12 -112 l6 -68 -45 -45 c-39 -39 -51 -45
-87 -45 -49 0 -95 -17 -136 -52 -39 -34 -169 -78 -227 -78 -55 0 -153 18 -193
35 -16 7 -64 16 -105 19 -74 7 -76 6 -130 -29 -83 -53 -111 -46 -148 39 -33
73 -27 150 23 281 7 18 6 18 -7 5 -44 -44 -72 -219 -52 -320 14 -72 35 -110
79 -149 45 -39 83 -55 169 -70 59 -10 78 -10 135 5 110 28 209 0 194 -56 -7
-26 10 -40 50 -40 20 0 27 5 27 20 0 11 11 27 25 36 20 13 23 20 15 35 -14 25
22 48 89 56 28 3 51 9 51 13 0 4 15 10 33 13 121 20 199 47 236 80 30 28 61
99 61 140 -1 64 -37 243 -58 287 l-22 45 5 -45z"/>
<path d="M5782 4910 c-1 -8 -7 -55 -12 -104 -17 -148 -77 -425 -118 -547 -67
-196 -135 -335 -262 -537 -44 -69 -33 -77 14 -10 157 226 224 350 282 525 66
197 110 464 102 618 -2 39 -5 63 -6 55z"/>
<path d="M4041 4198 c-32 -21 -44 -22 -154 -20 l-120 3 -81 -55 c-101 -69
-331 -287 -324 -307 3 -8 33 -30 66 -50 33 -19 86 -59 118 -88 45 -41 54 -55
43 -62 -12 -8 -11 -12 6 -25 39 -31 155 -84 223 -103 38 -10 80 -25 93 -32 15
-8 59 -13 119 -13 84 1 104 5 170 33 41 18 93 39 115 48 53 22 140 82 192 132
72 70 144 162 141 180 -2 10 14 33 35 53 27 26 37 44 37 66 0 36 0 35 -82 66
-75 29 -212 87 -288 123 -93 44 -152 63 -215 68 -51 5 -65 3 -94 -17z m99
-148 c0 -16 -6 -18 -37 -13 -69 10 -72 41 -4 35 32 -3 41 -8 41 -22z m136
-301 c8 -13 -30 -46 -63 -55 -26 -7 -83 16 -83 33 0 12 49 38 85 46 22 4 50
-7 61 -24z m87 11 c3 -12 0 -20 -8 -20 -7 0 -18 -7 -25 -15 -17 -20 -40 -2
-40 31 0 21 5 24 34 24 25 0 35 -5 39 -20z m-260 -38 c9 -9 13 -22 9 -28 -6
-9 -43 -12 -74 -6 -16 4 -7 28 15 38 31 16 32 16 50 -4z"/>
<path d="M2250 4204 c0 -22 64 -201 91 -255 15 -32 51 -87 78 -123 27 -36 47
-67 43 -69 -4 -1 -144 1 -312 5 -420 12 -700 -6 -1055 -66 -50 -8 -144 -20
-210 -26 -66 -6 -163 -17 -215 -24 -52 -8 -122 -17 -155 -21 -112 -12 -300
-55 -407 -91 l-108 -37 0 -1749 0 -1748 4140 0 4140 0 0 1124 0 1124 -28 5
c-15 3 -58 26 -95 52 -119 81 -191 106 -397 135 -258 37 -395 76 -483 139 -23
17 -127 66 -232 110 -104 43 -221 93 -260 111 -38 17 -119 49 -180 70 -127 44
-264 104 -418 183 -63 33 -127 58 -155 62 -26 4 -81 18 -122 32 -41 14 -114
33 -161 43 -51 11 -102 28 -125 43 -21 15 -65 36 -97 48 -33 12 -66 33 -74 45
-8 13 -36 36 -61 52 l-47 29 1 96 c1 73 -2 97 -12 101 -21 8 -54 -34 -54 -68
0 -17 -14 -79 -31 -139 -19 -69 -27 -113 -21 -119 5 -5 6 -27 1 -55 -5 -26
-10 -131 -11 -234 -3 -169 -1 -189 14 -201 15 -11 20 -40 28 -163 5 -82 15
-181 21 -220 14 -88 6 -315 -15 -412 -16 -73 -49 -180 -68 -218 -5 -11 -46
-56 -90 -100 -44 -44 -91 -91 -104 -105 -29 -30 -261 -166 -324 -190 -30 -12
-90 -20 -185 -25 -121 -6 -155 -4 -255 15 -126 24 -243 76 -299 134 l-30 31
25 70 c14 39 35 78 47 87 14 12 18 21 11 25 -24 18 -57 169 -62 288 -4 110 -3
125 18 170 13 28 42 75 65 105 24 30 50 69 58 85 8 17 40 59 71 93 62 70 92
113 136 201 l30 58 83 20 c110 27 221 80 318 150 83 59 104 86 27 34 -188
-127 -388 -180 -635 -167 -192 9 -385 58 -561 143 -42 20 -81 39 -87 41 -5 3
1 -5 14 -17 35 -30 4 -28 -62 5 -105 54 -219 155 -528 468 -447 454 -477 491
-574 701 -30 66 -55 115 -55 109z m3030 -1281 c0 -19 -3 -24 -10 -17 -6 6 -8
18 -4 27 9 24 14 21 14 -10z"/>
</g>
</svg>
